<svg xmlns="http://www.w3.org/2000/svg" width="24" height="24" viewBox="0 0 24 24">
    <path fill="currentColor" d="M12 17q-2.075 0-3.538-1.463T7 12q0-2.075 1.463-3.538T12 7q2.075 0 3.538 1.463T17 12q0 2.075-1.463 3.538T12 17M12 9q-1.25 0-2.125.875T9 12q0 1.25.875 2.125T12 15q1.25 0 2.125-.875T15 12q0-1.25-.875-2.125T12 9"/>
    <path fill="currentColor" d="M12 5q-.425 0-.713-.288T11 4V2q0-.425.288-.713T12 1q.425 0 .713.288T13 2v2q0 .425-.288.713T12 5m0 18q-.425 0-.713-.288T11 22v-2q0-.425.288-.713T12 19q.425 0 .713.288T13 20v2q0 .425-.288.713T12 23m9-11q-.425 0-.713-.288T20 11h2q0-.425.288-.713T23 10q.425 0 .713.288T24 11h-2q0 .425-.288.713T21 12M1 12q-.425 0-.713-.288T0 11q0-.425.288-.713T1 10h2q0 .425-.288.713T2 11zm16.95-6.95q-.275-.275-.275-.688t.275-.687l1.4-1.4q.275-.275.688-.275t.687.275q.275.275.275.688t-.275.687l-1.4 1.4q-.275.275-.688.275t-.687-.275M3.55 20.45q-.275-.275-.275-.688t.275-.687l1.4-1.4q.275-.275.688-.275t.687.275q.275.275.275.688t-.275.687l-1.4 1.4q-.275.275-.688.275t-.687-.275M5.65 5.65q-.275-.275-.275-.688t.275-.687q.275-.275.688-.275t.687.275l1.4 1.4q.275.275.275.688t-.275.687q-.275.275-.688.275t-.687-.275zm12.7 12.7q-.275-.275-.275-.688t.275-.687q.275-.275.688-.275t.687.275l1.4 1.4q.275.275.275.688t-.275.687q-.275.275-.688.275t-.687-.275z"/>
</svg> 